<?xml version="1.0" standalone="no"?>
<!DOCTYPE svg PUBLIC "-//W3C//DTD SVG 20010904//EN"
 "http://www.w3.org/TR/2001/REC-SVG-20010904/DTD/svg10.dtd">
<svg version="1.0" xmlns="http://www.w3.org/2000/svg"
 width="184.000000pt" height="184.000000pt" viewBox="0 0 184.000000 184.000000"
 preserveAspectRatio="xMidYMid meet">
<metadata>
Created by potrace 1.10, written by Peter Selinger 2001-2011
</metadata>
<g transform="translate(0.000000,184.000000) scale(0.100000,-0.100000)"
fill="#000000" stroke="none">
<path d="M750 1810 c-154 -30 -264 -64 -297 -91 -10 -8 -35 -24 -56 -34 -41
-21 -146 -127 -178 -179 -21 -34 -25 -66 -9 -66 6 0 10 5 10 12 0 6 11 25 23
42 13 17 26 38 30 46 4 12 6 11 6 -3 1 -10 -4 -27 -10 -39 -6 -11 -8 -22 -5
-25 3 -3 10 6 15 20 5 14 15 28 21 32 5 3 8 11 5 16 -7 10 4 53 11 46 3 -3 20
10 38 29 18 19 40 34 50 34 9 0 16 5 16 12 0 6 2 9 5 6 3 -3 22 10 42 28 26
24 40 31 49 24 8 -7 13 -6 18 5 3 9 18 15 39 15 19 0 40 6 46 14 7 8 41 17 79
21 37 4 86 13 110 21 35 12 51 12 83 2 26 -7 36 -15 30 -21 -7 -7 -19 -4 -35
6 -22 15 -26 15 -40 1 -9 -8 -21 -12 -27 -8 -10 6 -28 -11 -29 -28 0 -4 21 -5
48 -1 26 3 88 0 137 -7 50 -7 100 -13 112 -14 11 0 19 -4 17 -7 -2 -4 5 -14
16 -24 11 -10 20 -22 20 -27 0 -5 9 -21 21 -37 11 -15 27 -58 35 -94 9 -37 20
-67 25 -67 5 0 7 -15 5 -33 -4 -29 0 -36 25 -51 30 -17 34 -29 43 -105 2 -24
10 -47 17 -52 20 -12 21 -5 4 45 -9 26 -13 55 -10 65 3 12 -4 30 -19 48 -14
16 -30 51 -37 76 -6 26 -15 47 -19 47 -5 0 -6 9 -3 20 3 11 0 27 -7 35 -6 8
-9 19 -5 25 3 5 -1 17 -9 25 -8 9 -13 22 -10 30 7 17 34 21 34 5 0 -5 7 -7 15
-4 15 6 22 -11 8 -19 -5 -2 -2 -2 5 0 9 2 11 -3 7 -17 -4 -12 -2 -20 5 -20 6
0 8 5 5 10 -3 6 -2 10 3 10 13 0 24 -29 15 -43 -4 -7 0 -8 11 -4 13 5 17 3 13
-7 -3 -8 1 -20 9 -26 8 -7 14 -9 14 -4 0 5 9 -10 20 -34 10 -23 17 -50 14 -60
-4 -13 -3 -14 4 -4 7 10 12 6 21 -17 7 -16 10 -35 5 -42 -5 -9 -2 -10 9 -6 9
3 16 3 15 -1 -2 -7 10 -67 42 -202 20 -87 22 -106 10 -90 -9 12 -11 10 -7 -12
2 -16 0 -28 -6 -28 -5 0 -16 -8 -23 -17 -12 -15 -15 -16 -23 -3 -5 8 -7 18 -5
22 3 4 0 8 -5 8 -6 0 -11 -15 -11 -32 -1 -35 -19 -68 -39 -68 -17 0 -13 17 7
37 11 10 25 46 32 81 12 59 9 103 -15 187 -2 6 -3 -37 -3 -94 0 -57 -4 -106
-8 -110 -15 -10 -34 -60 -35 -89 0 -15 -3 -21 -6 -14 -6 15 -15 8 -100 -78
-44 -45 -56 -52 -64 -40 -9 13 -10 13 -6 0 6 -19 -11 -52 -23 -45 -5 3 -12 0
-16 -6 -4 -8 -3 -9 4 -5 8 5 12 -1 12 -14 0 -12 -4 -18 -10 -15 -6 4 -9 2 -8
-4 2 -6 -10 -21 -27 -35 -16 -13 -26 -28 -22 -32 4 -5 11 -4 15 1 4 6 21 19
37 31 l30 21 43 -23 c23 -12 42 -25 42 -29 -5 -25 14 -64 35 -69 46 -12 133
-115 160 -191 10 -27 21 -54 25 -60 13 -20 29 -92 36 -160 4 -38 13 -87 20
-107 7 -21 9 -40 5 -42 -4 -3 -40 -6 -79 -7 -52 -1 -72 -5 -72 -15 0 -10 15
-12 61 -9 33 2 63 6 67 9 9 10 24 7 17 -4 -3 -5 3 -10 14 -10 28 0 27 24 -5
186 -43 219 -88 346 -112 322 -9 -9 -12 -8 -12 5 0 9 5 17 10 17 18 0 10 15
-30 59 -22 23 -40 49 -40 56 0 23 -15 25 -33 5 -15 -18 -15 -20 1 -30 14 -9
12 -10 -8 -4 -27 7 -40 21 -40 43 0 11 3 11 15 1 12 -10 16 -9 21 4 10 27 -24
54 -85 67 -31 7 -58 14 -60 15 -2 2 29 34 68 72 39 37 71 67 71 65 0 -6 116
61 136 79 11 10 24 18 28 18 5 0 20 12 33 27 34 35 32 62 -15 280 -12 56 -52
153 -63 153 -5 0 -9 7 -9 15 0 13 -6 29 -29 71 -51 94 -152 194 -233 232 -77
36 -164 63 -198 61 -14 -1 -41 1 -60 4 -19 3 -78 -3 -130 -13z m455 -121 c4
-6 5 -13 2 -15 -6 -7 -47 27 -47 39 0 10 36 -9 45 -24z m187 -1147 c-3 -8 -14
-2 -33 19 -39 44 -37 57 4 22 19 -15 32 -34 29 -41z"/>
<path d="M757 1734 c-3 -4 1 -23 9 -43 15 -34 37 -267 36 -375 -1 -36 2 -46
10 -38 11 11 14 244 4 260 -2 4 -7 32 -10 62 -8 68 -26 140 -36 140 -4 0 -9
-3 -13 -6z"/>
<path d="M980 1627 c0 -8 -11 -17 -23 -21 -32 -8 -77 -44 -77 -61 0 -16 30 -9
42 9 4 6 24 11 45 11 36 1 38 2 38 35 0 18 -6 35 -12 38 -7 2 -13 -3 -13 -11z"/>
<path d="M1034 1583 c1 -36 4 -48 12 -42 13 11 74 -12 98 -37 10 -9 19 -14 22
-11 3 3 -26 36 -64 73 l-70 69 2 -52z"/>
<path d="M927 1472 c-16 -17 -16 -19 8 -32 29 -16 43 -7 25 15 -24 29 23 17
48 -12 24 -28 24 -28 17 -3 -16 51 -66 67 -98 32z"/>
<path d="M1086 1464 c-20 -19 -12 -34 17 -34 18 0 19 2 7 10 -13 8 -12 10 3
10 10 0 20 -7 23 -15 10 -24 26 -17 18 8 -12 39 -42 48 -68 21z"/>
<path d="M1040 1399 c-27 -10 -60 -56 -60 -82 0 -29 53 -56 113 -58 55 -2 87
10 87 35 0 12 -55 14 -67 3 -3 -4 -12 -2 -20 4 -7 6 -22 9 -33 6 -22 -6 -25
-3 -34 35 -5 21 -2 28 13 33 11 3 22 12 25 20 3 8 4 15 3 14 -1 0 -13 -5 -27
-10z"/>
<path d="M135 1343 c-15 -40 -35 -205 -35 -301 l0 -103 50 -49 c27 -26 63 -51
79 -55 17 -3 47 -14 68 -24 57 -27 195 -49 347 -55 72 -3 92 -7 103 -22 15
-21 17 -38 3 -29 -5 3 -10 3 -10 -2 0 -13 60 -73 72 -73 6 0 1 11 -12 25 l-23
25 21 0 c13 0 22 6 22 16 0 10 -6 13 -17 10 -14 -4 -22 4 -34 33 l-16 38 -89
2 c-48 1 -93 6 -99 10 -15 12 -56 20 -49 10 3 -5 1 -9 -5 -9 -5 0 -13 5 -16
10 -5 8 -11 8 -19 1 -7 -6 -15 -8 -19 -5 -3 3 -16 7 -29 9 -51 6 -123 29 -130
41 -5 7 -17 10 -28 7 -14 -4 -20 0 -20 12 0 10 -5 15 -14 12 -16 -7 -71 28
-71 45 0 7 -8 20 -18 28 -22 18 -35 118 -19 146 6 11 7 27 2 40 -5 13 -5 24
-1 26 5 2 11 28 14 59 4 30 11 67 16 82 10 27 6 57 -9 57 -4 0 -11 -8 -15 -17z"/>
<path d="M838 1270 c-32 -30 -50 -40 -75 -40 -22 0 -33 -5 -33 -14 0 -8 -7
-16 -15 -20 -20 -7 -19 -36 0 -36 9 0 15 6 14 13 -5 30 13 47 52 47 21 0 39 4
39 8 0 9 59 36 78 35 6 -1 12 10 12 23 0 35 -25 30 -72 -16z"/>
<path d="M1220 1250 c0 -5 3 -10 8 -10 4 0 12 -17 19 -37 15 -48 4 -55 -51
-37 -69 23 -156 33 -273 31 -92 -2 -115 -5 -130 -20 -16 -16 -16 -17 5 -17 12
0 22 6 23 13 0 6 5 2 11 -10 13 -28 28 -30 28 -4 0 17 8 18 98 14 53 -2 133
-12 177 -23 119 -27 149 -29 153 -7 6 29 -41 117 -62 117 -3 0 -6 -4 -6 -10z"/>
<path d="M680 1105 c0 -23 24 -45 35 -33 7 6 -18 58 -27 58 -5 0 -8 -11 -8
-25z"/>
<path d="M790 1121 c0 -8 -7 -10 -21 -6 -20 7 -20 2 9 -44 1 -3 8 4 16 14 13
18 14 18 25 -3 16 -30 39 -28 39 4 0 18 -5 24 -16 19 -8 -3 -23 2 -33 11 -13
11 -19 13 -19 5z"/>
<path d="M280 1024 c0 -17 48 -24 60 -9 8 10 2 14 -25 17 -23 3 -35 0 -35 -8z"/>
<path d="M230 990 c0 -6 11 -16 25 -22 14 -6 25 -17 25 -23 0 -7 17 -16 38
-20 20 -4 43 -11 49 -17 14 -12 43 -4 43 12 0 5 -14 10 -30 10 -32 0 -87 25
-115 53 -19 19 -35 22 -35 7z"/>
<path d="M1170 975 c0 -14 -4 -25 -10 -25 -5 0 -10 -7 -10 -15 0 -10 -10 -13
-34 -11 -19 1 -33 -1 -30 -6 3 -4 2 -13 -2 -19 -5 -8 -13 -4 -26 12 -13 16
-21 20 -25 12 -7 -18 -33 -16 -33 2 0 8 -5 15 -11 15 -6 0 -9 -10 -7 -22 2
-17 15 -27 44 -37 49 -17 83 -10 123 27 31 28 53 92 32 92 -6 0 -11 -11 -11
-25z"/>
<path d="M557 713 c-11 -10 -8 -25 3 -18 17 10 59 -6 53 -21 -5 -13 24 -51 32
-42 3 3 -4 23 -15 46 -15 31 -26 42 -44 42 -12 0 -26 -3 -29 -7z"/>
<path d="M890 690 c0 -12 9 -16 58 -24 18 -3 32 -1 32 4 0 6 -13 10 -30 10
-16 0 -30 5 -30 10 0 6 -7 10 -15 10 -8 0 -15 -5 -15 -10z"/>
<path d="M369 674 c-8 -10 -9 -15 -3 -11 12 7 60 -170 49 -181 -3 -4 -20 1
-36 11 -43 24 -49 22 -49 -18 0 -34 1 -35 23 -23 12 7 36 13 52 14 17 1 33 2
36 3 11 2 -30 194 -44 209 -12 11 -16 10 -28 -4z"/>
<path d="M246 661 c-18 -19 -15 -41 5 -41 6 0 7 5 4 10 -4 6 -1 18 6 26 18 22
5 27 -15 5z"/>
<path d="M660 675 c0 -17 39 -74 45 -66 3 6 -1 18 -9 27 -9 8 -16 22 -16 30 0
8 -4 14 -10 14 -5 0 -10 -2 -10 -5z"/>
<path d="M995 659 c4 -6 13 -8 21 -5 8 3 14 2 14 -2 0 -4 24 -22 53 -39 102
-62 171 -161 132 -193 -9 -7 -15 -8 -20 0 -8 13 -55 13 -55 0 0 -5 10 -10 21
-10 22 0 64 -39 134 -125 22 -27 52 -62 66 -77 23 -23 26 -34 23 -77 -2 -28 1
-53 6 -56 6 -3 11 5 11 19 1 14 2 40 3 57 0 17 -6 37 -16 46 -9 8 -20 28 -23
44 -4 16 -10 27 -15 26 -5 -1 -36 27 -68 62 -53 57 -58 67 -48 85 6 12 14 23
18 26 14 11 -32 87 -81 133 -28 26 -54 47 -57 47 -4 0 -22 11 -40 25 -32 25
-92 36 -79 14z"/>
<path d="M977 585 c-10 -32 -16 -60 -13 -62 7 -7 38 84 34 102 -1 10 -11 -8
-21 -40z"/>
<path d="M1484 615 c-22 -34 -8 -47 16 -15 22 28 25 40 10 40 -5 0 -17 -11
-26 -25z"/>
<path d="M822 598 c8 -12 23 -27 34 -32 28 -16 54 -47 60 -73 9 -33 2 -36 -35
-17 -23 11 -36 13 -43 6 -7 -7 2 -14 32 -22 27 -7 44 -18 47 -31 3 -10 9 -16
14 -13 5 3 9 -2 9 -10 0 -9 4 -16 9 -16 13 0 22 28 10 36 -5 3 -7 14 -4 25 18
64 18 64 4 52 -19 -19 -32 -16 -26 6 3 13 -1 21 -14 24 -11 3 -19 12 -19 21 0
9 -6 16 -14 16 -7 0 -21 11 -30 25 -9 14 -24 25 -32 25 -15 0 -15 -2 -2 -22z"/>
<path d="M130 600 c0 -5 15 -16 33 -24 36 -15 77 -51 77 -67 0 -6 -4 -7 -10
-4 -6 3 -7 -1 -4 -9 3 -9 2 -16 -4 -16 -7 0 -6 -12 1 -35 10 -33 13 -35 41
-29 41 8 41 8 26 46 -33 86 -40 96 -92 122 -57 28 -68 31 -68 16z"/>
<path d="M7 593 c-4 -3 -7 -25 -6 -47 l1 -41 9 44 c9 45 8 56 -4 44z"/>
<path d="M144 532 c0 -10 11 -23 23 -29 13 -6 23 -8 23 -3 0 4 -7 11 -16 14
-9 4 -14 13 -10 21 3 8 0 15 -7 15 -7 0 -13 -8 -13 -18z"/>
<path d="M570 532 c0 -7 -6 -12 -14 -12 -8 0 -17 -6 -19 -12 -3 -7 -6 -4 -6 6
-1 20 -1 20 -16 0 -19 -25 -19 -33 3 -28 26 8 68 42 59 50 -4 4 -7 2 -7 -4z"/>
<path d="M596 531 c-3 -5 1 -21 8 -37 8 -15 20 -50 27 -77 10 -44 13 -48 25
-33 11 16 13 16 19 -5 4 -13 2 -24 -5 -29 -9 -5 -10 -17 -4 -36 4 -16 8 -36 8
-45 1 -14 28 -49 39 -49 2 0 7 14 11 30 3 18 11 30 18 28 7 -1 35 12 61 31 27
18 51 30 55 26 7 -6 5 -165 -2 -265 -4 -54 1 -70 23 -69 10 0 11 2 3 6 -19 7
-4 23 24 23 15 0 24 -6 24 -15 0 -9 9 -15 21 -15 19 0 20 2 8 18 -8 9 -17 19
-20 22 -3 3 -18 27 -34 54 -26 45 -27 51 -16 85 7 20 25 53 39 75 32 47 46 72
65 112 14 29 20 32 76 39 34 4 61 11 61 17 0 12 -106 1 -137 -14 -13 -6 -23
-20 -23 -31 0 -23 -68 -127 -82 -127 -5 0 -8 20 -5 45 2 24 0 50 -4 56 -11 19
-67 15 -82 -4 -6 -9 -27 -21 -45 -27 -31 -8 -33 -7 -30 13 2 14 -6 29 -19 40
-15 12 -23 29 -23 48 0 23 -5 29 -20 29 -17 0 -19 3 -11 19 7 13 6 24 -4 37
-13 17 -14 18 -15 2 0 -10 5 -18 11 -18 5 0 7 -5 3 -11 -10 -17 -27 18 -21 42
5 19 -17 28 -27 10z"/>
<path d="M95 491 c37 -23 75 -35 75 -24 0 10 -70 43 -91 43 -8 0 0 -9 16 -19z"/>
<path d="M88 422 c2 -7 11 -11 19 -8 8 3 26 6 39 6 15 0 23 4 19 10 -10 16
-84 8 -77 -8z"/>
<path d="M1702 411 c-7 -16 -15 -53 -16 -81 -4 -49 -3 -51 30 -65 39 -16 52
-39 35 -59 -24 -29 -21 -140 5 -150 14 -5 70 19 80 35 12 20 -4 20 -40 0 -36
-21 -36 -21 -36 -1 0 11 6 20 13 20 17 0 63 48 54 56 -3 3 -18 -3 -33 -15 -15
-11 -31 -21 -35 -21 -16 0 -9 37 11 63 11 14 20 28 20 30 0 3 -13 20 -30 38
-16 18 -27 36 -25 40 3 4 -4 5 -15 2 -17 -5 -20 0 -20 29 0 20 9 46 20 61 23
29 26 47 7 47 -6 0 -18 -13 -25 -29z"/>
<path d="M832 419 c3 -8 13 -16 24 -18 10 -2 23 -9 27 -17 10 -18 27 -18 27 0
0 18 -19 33 -54 42 -22 5 -28 4 -24 -7z"/>
<path d="M42 394 c-24 -27 -7 -36 17 -10 17 18 20 26 10 26 -8 -1 -20 -7 -27
-16z"/>
<path d="M150 389 c0 -6 -8 -9 -20 -6 -11 3 -23 1 -26 -4 -4 -6 14 -9 45 -7
53 3 71 21 26 26 -14 2 -25 -2 -25 -9z"/>
<path d="M1127 346 c-3 -8 -2 -18 3 -21 6 -4 10 -22 10 -41 0 -19 5 -34 10
-34 20 0 21 29 2 70 -14 30 -21 38 -25 26z"/>
<path d="M1781 305 c3 -58 14 -58 15 0 0 25 -3 45 -8 45 -5 0 -8 -20 -7 -45z"/>
<path d="M592 278 c-18 -18 -15 -25 13 -30 21 -4 25 -1 25 18 0 26 -19 31 -38
12z"/>
<path d="M493 225 c-3 -9 -3 -18 0 -21 10 -10 47 7 47 22 0 19 -39 18 -47 -1z"/>
<path d="M567 220 c-9 -13 -14 -27 -11 -32 8 -12 37 29 32 44 -3 7 -11 2 -21
-12z"/>
<path d="M448 172 c-1 -4 -33 -23 -70 -42 -38 -18 -68 -37 -68 -42 0 -13 10
-10 47 13 19 12 45 23 56 24 12 1 25 3 30 4 4 0 7 8 7 17 0 12 6 15 25 10 19
-5 23 -3 19 9 -6 16 -40 21 -46 7z"/>
<path d="M520 171 c8 -6 23 -11 32 -11 10 0 22 -9 28 -20 6 -11 15 -18 21 -15
5 4 9 -1 9 -9 0 -9 8 -16 18 -16 21 0 62 -39 62 -59 0 -7 5 -9 11 -6 6 4 16 0
22 -9 7 -9 30 -19 52 -22 l40 -6 -46 33 c-26 19 -72 55 -104 81 -32 25 -73 49
-92 53 -19 3 -42 9 -51 12 -15 4 -15 3 -2 -6z"/>
<path d="M0 97 c0 -42 85 -86 145 -75 16 4 25 0 28 -11 4 -13 5 -13 6 2 1 19
30 24 32 5 1 -15 17 31 18 52 0 11 -4 10 -15 -5 -12 -16 -18 -18 -34 -7 -11 7
-20 8 -20 2 0 -5 -7 -6 -17 -3 -10 4 -14 2 -10 -4 5 -7 0 -9 -12 -6 -10 3 -22
0 -26 -7 -10 -16 -35 7 -35 34 0 17 -2 18 -10 6 -9 -13 -13 -12 -30 9 -14 16
-20 18 -20 8z"/>
<path d="M1740 16 c0 -12 10 -16 43 -15 40 1 40 1 11 8 -17 4 -36 11 -42 15
-7 4 -12 1 -12 -8z"/>
</g>
</svg>
